custom-analysis
version=1
nRows=6
nColumns=98
inDegrees=no

This file contains tibia displacement and acting force.

Units are S.I. units (seconds, meters, Newtons, ...)
Angles are in degrees.

endheader
time	APT	SIT	knee_angle	aACL_R_force	pACL_R_force	aPCL_R_force	pPCL_R_force	aMCL_R_force	mMCL_R_force	pMCL_R_force	aLCL_R_force	mLCL_R_force	pLCL_R_force	aPCL_L_force	pPCL_L_force	aMCL_L_force	aLCL_L_force	aACL_R_length	pACL_R_length	aPCL_R_length	pPCL_R_length	aMCL_R_length	mMCL_R_length	pMCL_R_length	aLCL_R_length	mLCL_R_length	pLCL_R_length	aPCL_L_length	pPCL_L_length	aMCL_L_length	aLCL_L_length	aACL_R_strain	pACL_R_strain	aPCL_R_strain	pPCL_R_strain	aMCL_R_strain	mMCL_R_strain	pMCL_R_strain	aLCL_R_strain	mLCL_R_strain	pLCL_R_strain	aPCL_L_strain	pPCL_L_strain	aMCL_L_strain	aLCL_L_strain	femur_lat_meniscii_r.femur_lat_r.force.X	femur_lat_meniscii_r.femur_lat_r.force.Y	femur_lat_meniscii_r.femur_lat_r.force.Z	femur_lat_meniscii_r.femur_lat_r.torque.X	femur_lat_meniscii_r.femur_lat_r.torque.Y	femur_lat_meniscii_r.femur_lat_r.torque.Z	femur_lat_meniscii_r.meniscus_lat_r.force.X	femur_lat_meniscii_r.meniscus_lat_r.force.Y	femur_lat_meniscii_r.meniscus_lat_r.force.Z	femur_lat_meniscii_r.meniscus_lat_r.torque.X	femur_lat_meniscii_r.meniscus_lat_r.torque.Y	femur_lat_meniscii_r.meniscus_lat_r.torque.Z	femur_med_meniscii_r.femur_med_r.force.X	femur_med_meniscii_r.femur_med_r.force.Y	femur_med_meniscii_r.femur_med_r.force.Z	femur_med_meniscii_r.femur_med_r.torque.X	femur_med_meniscii_r.femur_med_r.torque.Y	femur_med_meniscii_r.femur_med_r.torque.Z	femur_med_meniscii_r.meniscus_med_r.force.X	femur_med_meniscii_r.meniscus_med_r.force.Y	femur_med_meniscii_r.meniscus_med_r.force.Z	femur_med_meniscii_r.meniscus_med_r.torque.X	femur_med_meniscii_r.meniscus_med_r.torque.Y	femur_med_meniscii_r.meniscus_med_r.torque.Z	femur_med_tibia_r.tibia_upper_r.force.X	femur_med_tibia_r.tibia_upper_r.force.Y	femur_med_tibia_r.tibia_upper_r.force.Z	femur_med_tibia_r.tibia_upper_r.torque.X	femur_med_tibia_r.tibia_upper_r.torque.Y	femur_med_tibia_r.tibia_upper_r.torque.Z	femur_med_tibia_r.femur_med_r.force.X	femur_med_tibia_r.femur_med_r.force.Y	femur_med_tibia_r.femur_med_r.force.Z	femur_med_tibia_r.femur_med_r.torque.X	femur_med_tibia_r.femur_med_r.torque.Y	femur_med_tibia_r.femur_med_r.torque.Z	femur_lat_tibia_r.tibia_upper_r.force.X	femur_lat_tibia_r.tibia_upper_r.force.Y	femur_lat_tibia_r.tibia_upper_r.force.Z	femur_lat_tibia_r.tibia_upper_r.torque.X	femur_lat_tibia_r.tibia_upper_r.torque.Y	femur_lat_tibia_r.tibia_upper_r.torque.Z	femur_lat_tibia_r.femur_lat_r.force.X	femur_lat_tibia_r.femur_lat_r.force.Y	femur_lat_tibia_r.femur_lat_r.force.Z	femur_lat_tibia_r.femur_lat_r.torque.X	femur_lat_tibia_r.femur_lat_r.torque.Y	femur_lat_tibia_r.femur_lat_r.torque.Z	femur_lat_meniscii_force_r	femur_med_meniscii_force_r	femur_lat_tibia_force_r	femur_med_tibia_force_r
      0.11068288	      0.00848108	      0.00788702	     29.36248577	      7.60083000	    -13.00237686	     25.49867050	     59.03324160	      0.00000000	      0.00000000	      0.00000000	      0.00000000	      0.00000000	      0.00000000	      0.00000000	      0.00000000	      0.00000001	      0.00000000	      0.03243796	      0.02534918	      0.03116818	      0.03026899	      0.05734497	      0.05951448	      0.05871631	      0.05339958	      0.05026424	      0.04663951	      0.01525851	      0.01651186	      0.06550154	      0.04489616	      0.04620012	      0.01159199	      0.00234366	      0.01275420	     -0.04468037	     -0.00466647	     -0.00019913	     -0.04604763	     -0.10750191	     -0.10895874	      0.00000079	     -0.32847694	      0.00000060	     -0.00000086	     54.67203828	    277.90243653	     38.08438428	    -22.35568460	      1.39184671	     21.37281014	    -54.67203828	   -277.90243653	    -38.08438428	      8.36816923	     -1.90072226	      2.42024172	    -27.32764433	     61.16096497	      8.75488143	     -2.13793805	      0.63929369	    -11.18131408	     27.32764433	    -61.16096497	     -8.75488143	     -1.08313540	     -0.67413301	      1.37038245	   -107.60542357	   -512.01159193	    115.79638756	    -12.13644230	      2.64207426	      0.42917292	    107.60542357	    512.01159193	   -115.79638756	     57.45967842	     -1.65863203	     46.03652395	    -36.55394384	   -128.95289177	    -32.18053662	      4.35792466	     -1.28648572	      0.20555886	     36.55394384	    128.95289177	     32.18053662	    -16.39506760	      0.87634983	     15.11094323	    285.77826426	     67.55820993	    137.84275840	    535.85781773
      0.11178952	      0.00857569	      0.00804989	     29.87531321	      7.31945294	    -13.01016726	     25.14970852	     59.15702366	      0.00000000	      0.00000000	      0.00000000	      0.00000000	      0.00000000	      0.00000000	      0.00000000	      0.00000000	      0.00000001	      0.00000000	      0.03241392	      0.02531057	      0.03124188	      0.03031392	      0.05738092	      0.05950057	      0.05865156	      0.05338359	      0.05021587	      0.04655960	      0.01525851	      0.01651186	      0.06550154	      0.04489616	      0.04542500	      0.01005104	      0.00471401	      0.01425720	     -0.04408149	     -0.00489905	     -0.00130159	     -0.04633331	     -0.10836076	     -0.11048538	      0.00000079	     -0.32847694	      0.00000060	     -0.00000086	     58.69989079	    281.70914295	     36.77736973	    -21.88990097	      1.48257335	     23.01055709	    -58.69989079	   -281.70914295	    -36.77736973	      8.39892885	     -1.99090575	      2.41596148	    -25.57513677	     61.46839851	      9.52561439	     -2.44702109	      0.59562202	    -10.45453160	     25.57513677	    -61.46839851	     -9.52561439	     -1.07047849	     -0.64486098	      1.32820246	   -121.69788474	   -540.50165199	    122.70933049	    -12.84555404	      2.95479294	      0.29858036	    121.69788474	    540.50165199	   -122.70933049	     60.85106781	     -1.90056239	     51.95484495	    -37.24949760	   -129.14538345	    -32.11156888	      4.34944340	     -1.30978341	      0.22372646	     37.24949760	    129.14538345	     32.11156888	    -16.36499633	      0.89424500	     15.38554439	    290.10048832	     67.25465758	    138.19264811	    567.45924148
      0.11268734	      0.00865777	      0.00818253	     30.29452976	      7.93644814	    -12.19346251	     26.81874490	     63.32239125	      0.00000000	      0.00000000	      0.00000000	      0.00000000	      0.00000000	      0.00000000	      0.00000000	      0.00000000	      0.00000001	      0.00000000	      0.03239654	      0.02528121	      0.03130099	      0.03034905	      0.05741152	      0.05949014	      0.05859995	      0.05337183	      0.05017760	      0.04649559	      0.01525851	      0.01651186	      0.06550154	      0.04489616	      0.04486422	      0.00887969	      0.00661492	      0.01543275	     -0.04357168	     -0.00507340	     -0.00218046	     -0.04654345	     -0.10904034	     -0.11170826	      0.00000079	     -0.32847694	      0.00000060	     -0.00000086	     57.13888830	    273.66887603	     37.21174361	    -21.88158585	      1.43682634	     22.36692346	    -57.13888830	   -273.66887603	    -37.21174361	      8.19970726	     -1.95083220	      2.42188378	    -22.99266556	     59.56679138	     10.37970690	     -2.84765997	      0.52974315	     -9.39073053	     22.99266556	    -59.56679138	    -10.37970690	     -1.00211033	     -0.59558475	      1.24074044	   -131.84958789	   -552.90370813	    125.35941979	    -13.14164672	      3.16249838	      0.16443718	    131.84958789	    552.90370813	   -125.35941979	     62.17059344	     -2.07685356	     56.19114804	    -37.74422975	   -125.44470597	    -31.67583407	      4.23584884	     -1.32205628	      0.18994250	     37.74422975	    125.44470597	     31.67583407	    -16.09641997	      0.90621455	     15.58969771	    282.03584900	     64.68851227	    134.77521879	    582.06684188
      0.11328495	      0.00871391	      0.00827045	     30.57492088	      7.78176800	    -12.17402269	     28.33830238	     66.68293842	      0.00000000	      0.00000000	      0.00000000	      0.00000000	      0.00000000	      0.00000000	      0.00000000	      0.00000000	      0.00000001	      0.00000000	      0.03238575	      0.02526246	      0.03134106	      0.03037285	      0.05743319	      0.05948425	      0.05856666	      0.05336529	      0.05015328	      0.04645409	      0.01525851	      0.01651186	      0.06550154	      0.04489616	      0.04451633	      0.00813139	      0.00790345	      0.01622912	     -0.04321079	     -0.00517191	     -0.00274719	     -0.04666033	     -0.10947222	     -0.11250105	      0.00000079	     -0.32847694	      0.00000060	     -0.00000086	     55.79150296	    269.85649661	     36.26289042	    -21.38366992	      1.41043537	     21.80123999	    -55.79150296	   -269.85649661	    -36.26289042	      8.05128326	     -1.91434382	      2.46094225	    -21.55575366	     59.47847051	     10.89120224	     -3.06137209	      0.49510097	     -8.79010533	     21.55575366	    -59.47847051	    -10.89120224	     -0.98541520	     -0.57089399	      1.19466314	   -136.51637455	   -553.61829946	    124.78504737	    -13.12735680	      3.25398253	      0.09332138	    136.51637455	    553.61829946	   -124.78504737	     61.92865767	     -2.16777130	     58.11495943	    -36.73356660	   -121.15190524	    -30.70594445	      4.09026819	     -1.28917589	      0.19517145	     36.73356660	    121.15190524	     30.70594445	    -15.59128776	      0.88320906	     15.16527849	    277.93923398	     64.19468246	    130.26892984	    583.69619672
      0.11388256	      0.00877040	      0.00835860	     30.85622717	      7.28852819	    -12.44750192	     29.85118735	     69.63880191	      0.00000000	      0.00000000	      0.00000000	      0.00000000	      0.00000000	      0.00000000	      0.00000000	      0.00000000	      0.00000001	      0.00000000	      0.03237480	      0.02524363	      0.03138160	      0.03039688	      0.05745531	      0.05947867	      0.05853370	      0.05335924	      0.05012933	      0.04641295	      0.01525851	      0.01651186	      0.06550154	      0.04489616	      0.04416318	      0.00737997	      0.00920709	      0.01703308	     -0.04284214	     -0.00526528	     -0.00330846	     -0.04676841	     -0.10989752	     -0.11328712	      0.00000079	     -0.32847694	      0.00000060	     -0.00000086	     53.27603918	    268.79865650	     36.37789001	    -21.40686354	      1.34089159	     20.72771580	    -53.27603918	   -268.79865650	    -36.37789001	      8.02279164	     -1.84397240	      2.59078301	    -20.37493131	     58.50584278	     11.21203847	     -3.21432277	      0.46857958	     -8.30690126	     20.37493131	    -58.50584278	    -11.21203847	     -0.95831452	     -0.55178558	      1.15840981	   -140.62403529	   -551.27443200	    124.25609828	    -13.06840629	      3.33464483	      0.01654766	    140.62403529	    551.27443200	   -124.25609828	     61.65370164	     -2.24619843	     59.79776372	    -35.59100665	   -116.83204929	    -29.84952417	      3.94969172	     -1.25488641	      0.20270613	     35.59100665	    116.83204929	     29.84952417	    -15.13440820	      0.85795205	     14.68697755	    276.43155567	     62.95856790	    125.72764847	    582.33855844
      0.11462931	      0.00884097	      0.00846981	     31.20889822	      6.40390497	    -13.00417378	     31.72027931	     72.71252934	      0.00000000	      0.00000000	      0.00000000	      0.00000000	      0.00000000	      0.00000000	      0.00000000	      0.00000000	      0.00000001	      0.00000000	      0.03236029	      0.02521948	      0.03143232	      0.03042666	      0.05748274	      0.05947128	      0.05849212	      0.05335150	      0.05009905	      0.04636117	      0.01525851	      0.01651186	      0.06550154	      0.04489616	      0.04369506	      0.00641610	      0.01083843	      0.01802939	     -0.04238528	     -0.00538885	     -0.00401654	     -0.04690663	     -0.11043517	     -0.11427638	      0.00000079	     -0.32847694	      0.00000060	     -0.00000086	     50.89014819	    270.36182309	     36.04443022	    -21.30912473	      1.27018695	     19.68816872	    -50.89014819	   -270.36182309	    -36.04443022	      8.04874272	     -1.76863318	      2.77254523	    -19.51645239	     58.32820188	     11.75058273	     -3.44161567	      0.44698523	     -7.95534990	     19.51645239	    -58.32820188	    -11.75058273	     -0.93882105	     -0.53981613	      1.14071545	   -144.13625541	   -550.12472699	    123.66233607	    -13.02042402	      3.41449936	      0.00788149	    144.13625541	    550.12472699	   -123.66233607	     61.36558522	     -2.31937153	     61.21324402	    -34.30326776	   -111.00256318	    -28.65186351	      3.75915490	     -1.21307973	      0.19901281	     34.30326776	    111.00256318	     28.65186351	    -14.50036717	      0.82872760	     14.14988815	    277.46085042	     62.61906453	    119.66291194	    581.98354678
